<?xml version="1.0" encoding="UTF-8" ?>
<!DOCTYPE svg PUBLIC "-//W3C//DTD SVG 1.1//EN" "http://www.w3.org/Graphics/SVG/1.1/DTD/svg11.dtd">
<svg width="80pt" height="80pt" viewBox="0 0 80 80" version="1.1" xmlns="http://www.w3.org/2000/svg">
<path fill="#ac265b" stroke="#ac265b" stroke-width="0.09375" opacity="1.00" d=" M 9.3 58.2 C 19.5 40.9 29.8 23.5 40.0 6.1 L 40.9 6.3 C 44.6 12.2 48.0 18.3 51.6 24.2 C 52.4 25.4 53.5 27.0 52.5 28.4 C 49.0 34.7 45.2 41.0 41.7 47.4 C 49.7 47.4 57.7 47.3 65.7 47.4 C 70.4 56.1 75.1 64.8 80.0 73.4 L 80.0 74.2 C 71.9 74.2 63.8 74.2 55.7 74.3 C 50.5 65.8 46.1 56.8 40.9 48.3 C 35.3 56.7 30.9 65.8 25.4 74.3 C 17.0 74.2 8.5 74.4 0.0 73.7 L 0.0 73.5 C 3.4 68.6 6.1 63.3 9.3 58.2 Z" />
</svg>
