<svg xmlns="http://www.w3.org/2000/svg" width="36" height="36" viewBox="0 0 36 36">
  <g fill="none" fill-rule="evenodd">
    <rect width="36" height="36" fill="#FFF"/>
    <g fill-rule="nonzero" stroke-width=".094" transform="translate(1 2)">
      <path fill="red" stroke="red" d="M0 0C5.29655172 0 10.7034483 0 16 0 16 2 16 4.11111111 16 6.11111111 12.6896552 6.11111111 9.37931034 6.11111111 6.06896552 6.11111111 6.06896552 9.44444444 6.06896552 12.6666667 6.06896552 16 4.08275862 16 1.9862069 16 0 16 0 10.6666667 0 5.33333333 0 0zM18 0C23.2965517 0 28.7034483 0 34 0 34 5.33333333 34 10.6666667 34 16 31.9034483 16 29.9172414 16 27.8206897 16 27.8206897 12.6666667 27.8206897 9.44444444 27.8206897 6.11111111 24.5103448 6.11111111 21.3103448 6.11111111 18 6.11111111 18 4.11111111 18 2 18 0z"/>
      <path fill="#00319F" stroke="#00319F" d="M11,11 C15.0353982,11 19.0707965,11 23,11 C23,15.0353982 23,18.9646018 23,23 C19.0707965,23 15.0353982,23 11,22.8938053 C11,18.9646018 11,15.0353982 11,11 Z"/>
      <path fill="red" stroke="red" d="M0 18C1.9862069 18 4.08275862 18 6.06896552 18 6.06896552 21.2061069 6.06896552 24.4122137 6.06896552 27.5114504 9.37931034 27.5114504 12.6896552 27.5114504 16 27.5114504 16 29.0076336 16 30.5038168 16 32 10.7034483 31.8931298 5.29655172 31.8931298 0 31.8931298 0 27.2977099 0 22.7022901 0 18zM27.8206897 18C29.9172414 18 31.9034483 18 34 18 34 22.7384615 34 27.3692308 34 32 28.7034483 32 23.2965517 32 18 32 18 30.6 18 29.0923077 18 27.5846154 21.3103448 27.5846154 24.5103448 27.5846154 27.8206897 27.5846154 27.8206897 24.4615385 27.8206897 21.2307692 27.8206897 18z"/>
    </g>
  </g>
</svg>
