<svg xmlns="http://www.w3.org/2000/svg" width="36" height="36" viewBox="0 0 36 36">
  <g fill="none" fill-rule="evenodd">
    <rect width="36" height="36" fill="#FFF"/>
    <g fill-rule="nonzero" transform="translate(3 2)">
      <path fill="#9EA0A2" d="M29.0143684,2.73844068 C31.8119825,6.84833898 29.8132982,14.7610678 24.1185439,21.1317458 C21.421,24.0094576 18.4232456,26.1667627 15.5261053,27.4000678 C15.5261053,28.4269831 15.7257018,29.3521017 15.8257719,29.9684746 C18.3231754,28.5298983 20.8216667,26.4749492 23.1194737,23.9065424 C29.9128246,16.302 32.4113158,7.15708475 29.0143684,2.73844068 Z"/>
      <path fill="#000" d="M28.4144912,2.1220678 L29.0143684,2.73844068 C28.8001114,2.41545794 28.5289487,2.13658578 28.2148947,1.91623729 C25.6168772,-0.652728814 21.0207193,-0.344542373 16.5246316,2.22442373 C21.2208596,-0.138711864 25.8164737,-0.446898305 28.4144912,2.1220678 Z"/>
      <path fill="#D2562E" d="M5.73391228,26.7831356 C1.83715789,23.084339 3.73577193,14.4528814 9.93033333,7.56818644 C12.0285439,5.30740678 14.2262807,3.56064407 16.5246316,2.22498305 C13.5274211,3.76591525 10.4295965,6.12961017 7.73205263,9.2120339 C0.538421053,17.1247627 -1.86,26.8854915 2.33696491,30.9965085 C3.93536842,32.4350847 6.03357895,32.9485424 8.53152632,32.6403559 C9.63066667,31.3041356 10.4301404,29.8655593 11.1295439,28.529339 C9.03133333,28.6322542 7.1327193,28.1187966 5.73391228,26.7831356 Z"/>
      <path fill="#BA2A2F" d="M16.5246316,2.22498305 C21.2208596,-0.138711864 25.8164737,-0.446898305 28.4144912,2.1220678 L29.0143684,2.73844068 C31.8119825,6.84833898 29.8132982,14.7610678 24.1185439,21.1317458 C21.421,24.0094576 18.4232456,26.1667627 15.5261053,27.4000678 C15.5261053,25.6533051 15.9258421,23.3919661 16.9249123,20.6182881 C16.9249123,20.6182881 17.5242456,19.2820678 19.2227193,13.3224915 C19.2227193,13.3224915 20.7210526,10.2395085 16.4251053,11.2675424 C16.4251053,11.2675424 13.7275614,11.4728136 9.13140351,16.1996441 C9.13140351,16.1996441 6.93312281,19.2826271 10.9299474,17.4329492 C10.9299474,17.4329492 13.1282281,15.5827119 13.1282281,18.3569492 C13.1282281,18.3569492 13.6274912,22.9814237 11.1300877,28.5298983 C9.03187719,28.6328136 7.13326316,28.1193559 5.735,26.7831356 C1.83824561,23.084339 3.73685965,14.4528814 9.93142105,7.56818644 C12.0285439,5.30740678 14.2268246,3.56064407 16.5246316,2.22498305 Z M18.4232456,4.07466102 C17.0244386,5.61615254 16.7247719,7.46527119 17.5237018,8.28747458 C18.4232456,9.00676271 20.1217193,8.49330508 21.5205263,7.05416949 C22.8192632,5.51323729 23.219,3.66355932 22.32,2.84135593 C21.421,2.01915254 19.7219825,2.63552542 18.4232456,4.07466102 Z"/>
    </g>
  </g>
</svg>
